<?xml version="1.0" standalone="no"?>
<svg xmlns:xlink="http://www.w3.org/1999/xlink" id="wave" style="transform:rotate(0deg); transition: 0.3s" viewBox="0 0 1440 490" version="1.1" xmlns="http://www.w3.org/2000/svg"><defs><linearGradient id="sw-gradient-0" x1="0" x2="0" y1="1" y2="0"><stop stop-color="rgba(67, 56, 202, 1)" offset="0%"/><stop stop-color="rgba(99, 102, 241, 1)" offset="100%"/></linearGradient></defs><path style="transform:translate(0, 0px); opacity:1" fill="url(#sw-gradient-0)" d="M0,441L26.7,408.3C53.3,376,107,310,160,253.2C213.3,196,267,147,320,155.2C373.3,163,427,229,480,245C533.3,261,587,229,640,228.7C693.3,229,747,261,800,269.5C853.3,278,907,261,960,236.8C1013.3,212,1067,180,1120,204.2C1173.3,229,1227,310,1280,294C1333.3,278,1387,163,1440,130.7C1493.3,98,1547,147,1600,196C1653.3,245,1707,294,1760,261.3C1813.3,229,1867,114,1920,65.3C1973.3,16,2027,33,2080,81.7C2133.3,131,2187,212,2240,253.2C2293.3,294,2347,294,2400,285.8C2453.3,278,2507,261,2560,253.2C2613.3,245,2667,245,2720,220.5C2773.3,196,2827,147,2880,122.5C2933.3,98,2987,98,3040,89.8C3093.3,82,3147,65,3200,106.2C3253.3,147,3307,245,3360,253.2C3413.3,261,3467,180,3520,122.5C3573.3,65,3627,33,3680,81.7C3733.3,131,3787,261,3813,326.7L3840,392L3840,490L3813.3,490C3786.7,490,3733,490,3680,490C3626.7,490,3573,490,3520,490C3466.7,490,3413,490,3360,490C3306.7,490,3253,490,3200,490C3146.7,490,3093,490,3040,490C2986.7,490,2933,490,2880,490C2826.7,490,2773,490,2720,490C2666.7,490,2613,490,2560,490C2506.7,490,2453,490,2400,490C2346.7,490,2293,490,2240,490C2186.7,490,2133,490,2080,490C2026.7,490,1973,490,1920,490C1866.7,490,1813,490,1760,490C1706.7,490,1653,490,1600,490C1546.7,490,1493,490,1440,490C1386.7,490,1333,490,1280,490C1226.7,490,1173,490,1120,490C1066.7,490,1013,490,960,490C906.7,490,853,490,800,490C746.7,490,693,490,640,490C586.7,490,533,490,480,490C426.7,490,373,490,320,490C266.7,490,213,490,160,490C106.7,490,53,490,27,490L0,490Z"/></svg>