<?xml version="1.0" standalone="no"?>
<svg xmlns:xlink="http://www.w3.org/1999/xlink" id="wave" style="transform:rotate(0deg); transition: 0.3s" viewBox="0 0 1440 490" version="1.1" xmlns="http://www.w3.org/2000/svg"><defs><linearGradient id="sw-gradient-0" x1="0" x2="0" y1="1" y2="0"><stop stop-color="rgba(67, 56, 202, 1)" offset="0%"/><stop stop-color="rgba(99, 102, 241, 1)" offset="100%"/></linearGradient></defs><path style="transform:translate(0, 0px); opacity:1" fill="url(#sw-gradient-0)" d="M0,49L26.7,98C53.3,147,107,245,160,261.3C213.3,278,267,212,320,204.2C373.3,196,427,245,480,236.8C533.3,229,587,163,640,122.5C693.3,82,747,65,800,65.3C853.3,65,907,82,960,122.5C1013.3,163,1067,229,1120,269.5C1173.3,310,1227,327,1280,343C1333.3,359,1387,376,1440,343C1493.3,310,1547,229,1600,236.8C1653.3,245,1707,343,1760,359.3C1813.3,376,1867,310,1920,253.2C1973.3,196,2027,147,2080,106.2C2133.3,65,2187,33,2240,16.3C2293.3,0,2347,0,2400,49C2453.3,98,2507,196,2560,196C2613.3,196,2667,98,2720,73.5C2773.3,49,2827,98,2880,98C2933.3,98,2987,49,3040,49C3093.3,49,3147,98,3200,114.3C3253.3,131,3307,114,3360,122.5C3413.3,131,3467,163,3520,187.8C3573.3,212,3627,229,3680,269.5C3733.3,310,3787,376,3813,408.3L3840,441L3840,490L3813.3,490C3786.7,490,3733,490,3680,490C3626.7,490,3573,490,3520,490C3466.7,490,3413,490,3360,490C3306.7,490,3253,490,3200,490C3146.7,490,3093,490,3040,490C2986.7,490,2933,490,2880,490C2826.7,490,2773,490,2720,490C2666.7,490,2613,490,2560,490C2506.7,490,2453,490,2400,490C2346.7,490,2293,490,2240,490C2186.7,490,2133,490,2080,490C2026.7,490,1973,490,1920,490C1866.7,490,1813,490,1760,490C1706.7,490,1653,490,1600,490C1546.7,490,1493,490,1440,490C1386.7,490,1333,490,1280,490C1226.7,490,1173,490,1120,490C1066.7,490,1013,490,960,490C906.7,490,853,490,800,490C746.7,490,693,490,640,490C586.7,490,533,490,480,490C426.7,490,373,490,320,490C266.7,490,213,490,160,490C106.7,490,53,490,27,490L0,490Z"/></svg>